<?xml version="1.0" standalone="no"?>
<!DOCTYPE svg PUBLIC "-//W3C//DTD SVG 20010904//EN"
 "http://www.w3.org/TR/2001/REC-SVG-20010904/DTD/svg10.dtd">
<svg version="1.0" xmlns="http://www.w3.org/2000/svg"
 width="96.000000pt" height="60.000000pt" viewBox="0 0 96.000000 60.000000"
 preserveAspectRatio="xMidYMid meet">

<g transform="translate(0.000000,60.000000) scale(0.100000,-0.100000)"
fill="#192a56" stroke="none">
<path d="M115 586 c-38 -17 -90 -72 -104 -109 -6 -16 -11 -95 -11 -177 0 -82
5 -161 11 -177 14 -38 67 -92 106 -109 41 -18 675 -20 720 -3 38 14 92 67 109
106 17 40 20 317 3 360 -14 38 -67 92 -106 109 -46 20 -684 20 -728 0z m452
-148 c27 -25 31 -79 8 -98 -13 -11 -12 -16 11 -43 29 -34 27 -68 -7 -102 -17
-17 -33 -20 -117 -20 l-97 0 -3 143 -3 142 93 0 c80 0 95 -3 115 -22z"/>
<path d="M420 376 c0 -36 0 -36 43 -36 53 0 70 11 65 41 -3 21 -9 24 -55 27
l-53 3 0 -35z"/>
<path d="M420 255 l0 -35 48 0 c58 0 75 10 70 41 -3 22 -9 24 -60 27 l-58 3 0
-36z"/>
</g>
</svg>
